 <svg  version="1.0" xmlns="http://www.w3.org/2000/svg"  width="900.000000pt" height="900.000000pt" viewBox="0 0 900.000000 900.000000"  preserveAspectRatio="xMidYMid meet">  <g transform="translate(0.000000,900.000000) scale(0.100000,-0.100000)" fill="#ffffff" stroke="none"> <path d="M4394 7376 c-17 -8 -40 -27 -51 -42 -21 -30 -164 -268 -176 -294 -4 -8 -16 -28 -27 -45 -11 -16 -28 -46 -38 -65 -10 -19 -46 -82 -80 -138 -34 -57 -62 -106 -62 -108 0 -3 -42 -75 -93 -162 -198 -334 -280 -477 -287 -502 -6 -24 -10 -25 -76 -26 -175 -1 -259 -26 -425 -122 -46 -27 -150 -88 -232 -136 -81 -47 -149 -86 -151 -86 -2 0 -71 -40 -153 -88 -81 -49 -173 -102 -203 -117 -30 -16 -74 -42 -97 -57 -23 -15 -44 -28 -48 -28 -3 0 -66 -36 -139 -80 -74 -44 -136 -80 -139 -80 -19 0 -232 -139 -248 -161 -53 -74 -30 -146 65 -208 34 -23 65 -41 69 -41 4 0 36 -18 71 -40 36 -21 86 -51 113 -65 26 -14 62 -34 78 -44 17 -10 152 -88 300 -173 149 -86 294 -169 323 -187 29 -17 54 -31 56 -31 2 0 61 -34 130 -75 69 -41 128 -75 131 -75 2 0 35 -19 72 -42 147 -90 266 -128 400 -128 65 0 77 -3 94 -22 10 -13 18 -27 19 -32 0 -4 29 -56 63 -115 64 -107 123 -208 287 -493 35 -62 70 -122 77 -133 7 -11 15 -27 19 -35 4 -8 34 -59 66 -113 32 -55 58 -100 58 -102 0 -10 136 -234 154 -254 49 -55 143 -75 213 -46 55 23 68 38 139 160 36 60 69 117 74 125 5 8 24 40 41 70 18 30 69 118 114 195 146 249 321 547 400 683 l77 132 72 0 c133 0 219 31 438 158 45 26 121 70 168 97 47 27 118 68 158 92 40 24 74 43 77 43 2 0 61 34 130 75 70 41 129 75 130 75 2 0 61 34 130 75 70 41 129 75 131 75 4 0 149 84 174 100 8 6 22 13 30 17 45 20 189 109 212 131 69 64 37 182 -61 231 -45 22 -294 165 -412 237 -49 30 -92 54 -96 54 -3 0 -39 20 -80 45 -40 25 -77 45 -80 45 -4 0 -14 6 -22 14 -9 7 -47 31 -86 52 -38 21 -110 62 -158 91 -48 29 -90 53 -93 53 -4 0 -62 34 -131 75 -68 41 -127 75 -130 75 -3 0 -38 19 -77 43 -151 91 -226 111 -382 104 -106 -4 -125 -3 -137 12 -15 17 -137 227 -137 236 0 3 -48 88 -100 175 -5 8 -33 58 -62 110 -28 52 -76 135 -106 185 -30 49 -58 98 -63 110 -5 11 -14 27 -19 35 -6 8 -48 80 -93 160 -178 311 -189 328 -230 345 -20 8 -38 15 -40 15 -1 -1 -16 -7 -33 -14z m109 -376 c22 -18 87 -103 87 -115 0 -2 19 -36 43 -77 24 -40 46 -80 50 -88 4 -8 11 -22 17 -30 18 -28 127 -215 133 -230 4 -8 11 -22 17 -30 14 -21 95 -162 103 -180 4 -8 16 -28 27 -45 11 -16 23 -37 27 -45 4 -8 33 -58 65 -111 32 -53 58 -104 58 -113 0 -9 -14 -28 -32 -43 -56 -49 -110 -111 -143 -166 -58 -96 -65 -133 -76 -377 -9 -214 -11 -226 -32 -244 -21 -18 -40 -18 -406 -13 -256 4 -388 10 -395 17 -7 7 -13 88 -17 213 -4 138 -11 218 -22 253 -39 130 -116 237 -228 315 -32 23 -59 45 -59 48 0 3 16 32 35 64 19 32 35 61 35 64 0 4 6 14 14 22 7 9 31 48 52 86 33 62 128 225 154 265 5 8 19 33 31 55 12 22 61 105 108 185 48 80 90 152 94 160 4 8 15 27 25 41 9 15 27 44 40 66 13 22 36 47 50 56 39 24 113 22 145 -3z m1056 -1180 c54 -9 122 -38 196 -82 11 -7 37 -23 58 -36 21 -12 52 -31 70 -41 18 -10 85 -49 151 -87 65 -38 141 -82 170 -98 28 -15 74 -43 101 -61 28 -17 127 -76 220 -130 243 -140 279 -166 304 -218 12 -24 21 -61 21 -83 0 -47 -28 -111 -61 -140 -23 -20 -125 -84 -134 -84 -2 0 -28 -14 -57 -31 -29 -18 -91 -53 -138 -79 -47 -27 -152 -87 -234 -134 -82 -47 -151 -86 -153 -86 -1 0 -51 -28 -110 -63 -303 -178 -374 -211 -440 -205 -34 3 -38 6 -35 28 14 127 13 191 -3 264 -47 209 -194 363 -415 432 -69 21 -80 30 -80 65 0 32 5 36 85 64 191 67 345 256 374 456 13 96 -1 234 -30 292 -20 39 -21 41 -3 54 21 16 58 16 143 3z m-2135 -19 c3 -5 -3 -44 -14 -86 -54 -211 0 -406 155 -560 86 -87 163 -131 265 -155 79 -18 92 -27 88 -58 -3 -24 -13 -30 -89 -58 -47 -16 -108 -43 -135 -59 -113 -66 -208 -187 -255 -325 -26 -77 -32 -245 -10 -298 7 -17 10 -39 7 -48 -14 -36 -150 -1 -267 67 -25 14 -65 37 -90 51 -122 69 -288 164 -319 183 -19 12 -64 38 -100 57 -36 20 -123 69 -195 110 -134 77 -174 100 -310 175 -95 53 -111 66 -136 115 -24 47 -24 60 1 107 26 52 40 62 290 208 118 69 302 177 407 239 106 63 195 114 197 114 3 0 67 37 143 83 189 114 256 144 325 146 20 1 39 -3 42 -8z m292 -77 c66 -51 100 -89 139 -159 52 -94 66 -161 63 -300 -3 -116 -4 -120 -26 -123 -26 -4 -95 34 -149 81 -50 44 -108 136 -133 213 -40 118 -15 324 39 324 11 0 41 -16 67 -36z m1523 4 c4 -13 14 -53 21 -90 24 -122 -23 -272 -121 -381 -60 -68 -126 -114 -141 -99 -6 6 -9 70 -6 164 3 153 3 153 41 230 24 50 57 97 97 137 64 65 95 76 109 39z m-379 -763 c15 -18 4 -53 -18 -57 -22 -5 -773 2 -789 7 -14 5 -18 47 -6 58 3 4 185 7 403 7 335 0 399 -2 410 -15z m-6 -181 c13 -13 16 -42 16 -163 0 -81 5 -174 11 -207 24 -132 125 -285 240 -362 78 -53 78 -46 1 -179 -38 -65 -82 -139 -98 -165 -16 -26 -51 -85 -78 -130 -27 -46 -59 -100 -72 -120 -13 -21 -24 -40 -24 -42 0 -11 -264 -443 -283 -464 -50 -54 -126 -68 -184 -33 -36 23 -62 59 -165 236 -117 201 -232 397 -245 420 -7 11 -15 27 -19 35 -4 8 -40 70 -81 138 -40 68 -73 125 -73 127 0 3 -13 27 -30 53 -16 27 -30 56 -30 64 0 8 21 27 46 43 104 66 197 201 233 339 17 65 21 110 21 247 0 125 3 169 13 172 6 3 186 6 399 6 339 1 389 -1 402 -15z m208 -46 c74 -39 164 -137 206 -225 35 -74 36 -83 37 -185 0 -69 -4 -111 -12 -119 -45 -45 -220 115 -274 251 -33 84 -40 300 -10 300 5 0 29 -10 53 -22z m-1154 0 c17 -17 15 -150 -4 -227 -31 -126 -118 -247 -219 -305 -33 -19 -36 -19 -52 -3 -13 13 -17 36 -16 109 0 113 19 176 80 271 48 73 149 160 194 166 3 1 10 -4 17 -11z"/> <path d="M1725 2174 c-32 -8 -87 -37 -126 -66 -106 -80 -147 -232 -99 -362 67 -177 261 -254 433 -173 45 22 57 32 57 51 0 33 -26 54 -48 38 -10 -7 -36 -21 -60 -32 -147 -67 -335 60 -335 227 0 169 182 299 329 234 26 -12 56 -28 65 -36 14 -13 18 -13 33 4 27 29 16 51 -41 83 -39 22 -68 30 -120 33 -37 2 -77 2 -88 -1z"/> <path d="M2309 2171 c-85 -18 -178 -97 -220 -188 -16 -36 -22 -68 -23 -124 -1 -69 3 -84 34 -145 74 -144 224 -206 384 -160 123 36 226 176 226 306 0 105 -78 228 -179 283 -55 30 -154 43 -222 28z m199 -98 c115 -68 158 -210 97 -322 -72 -132 -197 -174 -329 -112 -51 25 -67 40 -98 88 -35 53 -38 64 -38 128 0 122 71 217 185 246 49 13 136 -1 183 -28z"/> <path d="M4533 2171 c-96 -25 -188 -114 -221 -216 -26 -79 -27 -115 -5 -181 52 -156 179 -244 336 -232 109 9 193 62 238 150 23 45 38 166 22 176 -6 4 -68 6 -137 4 l-126 -3 0 -25 c0 -27 0 -27 92 -25 48 1 71 -3 82 -15 42 -41 -4 -131 -87 -170 -125 -58 -275 -4 -333 121 -56 119 -13 253 104 322 39 23 59 27 117 27 63 0 77 -3 125 -33 51 -31 54 -32 67 -15 28 38 14 57 -72 97 -45 21 -154 30 -202 18z"/> <path d="M5500 2171 c-71 -15 -153 -74 -195 -141 -27 -42 -55 -135 -55 -182 0 -44 34 -131 71 -182 82 -115 257 -158 384 -95 56 28 69 42 60 68 -8 26 -34 35 -54 17 -47 -42 -150 -57 -218 -33 -82 30 -173 148 -173 224 0 50 29 124 67 171 80 98 217 119 317 49 31 -22 58 -15 64 17 10 52 -165 108 -268 87z"/> <path d="M2828 1869 c-2 -233 0 -303 10 -311 8 -7 58 -9 140 -6 112 5 134 8 185 33 107 52 151 130 151 275 0 79 -4 103 -22 140 -29 57 -39 70 -82 102 -68 51 -133 68 -262 68 l-117 0 -3 -301z m264 214 c106 -41 151 -111 150 -229 -1 -152 -92 -234 -258 -234 -87 0 -84 -9 -84 245 0 169 3 225 13 228 29 12 139 6 179 -10z"/> <path d="M3450 1860 l0 -311 33 3 32 3 0 305 0 305 -32 3 -33 3 0 -311z"/> <path d="M4098 1968 c-3 -178 -5 -203 -19 -206 -9 -2 -23 3 -30 11 -8 8 -90 93 -184 190 -93 98 -173 176 -178 174 -4 -1 -8 -130 -8 -287 0 -248 2 -286 15 -295 11 -7 21 -7 32 0 13 8 16 40 17 200 l2 190 24 3 c13 2 27 -1 30 -6 3 -6 51 -57 105 -114 55 -57 133 -138 174 -181 41 -42 77 -75 79 -73 3 2 5 136 4 298 l0 293 -30 3 -31 3 -2 -203z"/> <path d="M5905 2158 c-3 -7 -4 -146 -3 -308 l3 -295 169 -3 c101 -2 173 1 179 7 5 5 7 21 3 35 l-6 26 -129 0 c-95 0 -131 3 -140 13 -7 9 -12 102 -13 273 l-3 259 -28 3 c-16 2 -29 -2 -32 -10z"/> <path d="M6377 2163 c-12 -11 -8 -411 5 -460 15 -60 87 -137 143 -152 51 -14 75 -14 133 1 62 15 103 47 135 107 l27 49 0 231 0 231 -29 0 -29 0 -4 -223 c-3 -223 -3 -224 -30 -264 -33 -50 -103 -87 -145 -77 -33 8 -82 32 -99 48 -6 7 -20 28 -30 46 -17 31 -19 62 -22 253 l-3 217 -23 0 c-12 0 -26 -3 -29 -7z"/> <path d="M6989 2083 c-1 -96 -1 -513 0 -525 1 -10 226 -10 272 -1 21 4 51 24 81 54 48 48 48 48 48 115 0 57 -4 72 -26 101 -14 18 -41 40 -60 48 -38 16 -44 38 -16 68 12 14 17 36 17 77 0 48 -4 63 -25 86 -44 47 -95 64 -197 64 l-93 0 -1 -87z m230 -14 c42 -41 42 -89 2 -130 -26 -26 -36 -29 -90 -29 -49 0 -62 3 -71 19 -14 27 -13 144 2 159 7 7 38 12 69 12 51 0 61 -4 88 -31z m50 -239 c61 -31 78 -99 39 -157 -27 -39 -92 -63 -169 -63 -80 0 -89 13 -89 125 0 57 4 95 12 103 21 21 162 15 207 -8z"/> </g> </svg> 